<svg width="1em" height="1em" viewBox="0 0 100 101" fill="currentColor" xmlns="http://www.w3.org/2000/svg" role="img" aria-label="search" fmp-c="4" style="
   
    color: black;
"><path fill-rule="evenodd" clip-rule="evenodd" d="M74.8777 18.9017C68.2251 12.2752 58.6608 11.5352 46.9726 11.5352C35.2695 11.5352 25.6912 12.2842 19.0417 18.9276C12.3938 25.5699 11.7188 35.1332 11.7188 46.8233C11.7188 58.5134 12.3938 68.0815 19.0445 74.7249C25.6942 81.3705 35.2704 82.043 46.9726 82.043C57.3477 82.043 66.0519 81.5144 72.527 76.7629L86.2668 90.5027L86.3037 90.5389C87.5267 91.7229 89.4781 91.7109 90.6863 90.5027C91.9066 89.2823 91.9066 87.3036 90.6863 86.0833L76.9469 72.3436C81.6954 65.8745 82.2265 57.1829 82.2265 46.8233C82.2265 35.1182 81.5425 25.5441 74.8777 18.9017ZM46.7732 17.7852H47.1722L47.762 17.7864L48.1481 17.7881L48.5286 17.7905L48.9037 17.7936L49.2733 17.7974L49.6376 17.802L49.9967 17.8073L50.3507 17.8133L50.6995 17.8202L51.0434 17.8277L51.5501 17.8406L51.882 17.8502L52.2091 17.8605L52.5317 17.8717L52.9286 17.8869L53.3186 17.9034L53.6258 17.9176L53.9288 17.9326L54.2277 17.9485L54.5225 17.9653L54.8134 17.983L55.1005 18.0017L55.2426 18.0113L55.524 18.0313C55.6172 18.0382 55.7098 18.0452 55.8018 18.0523L56.076 18.0742L56.2118 18.0855L56.4808 18.1089L56.6141 18.1209L56.8782 18.1458L57.139 18.1716L57.2683 18.1849L57.5245 18.2122C57.6519 18.2261 57.7781 18.2404 57.9032 18.2551L58.1521 18.285C58.2346 18.2952 58.3166 18.3055 58.3982 18.316L58.6416 18.348C58.8837 18.3806 59.1219 18.4147 59.3565 18.4505L59.59 18.4869L59.8212 18.5244C60.0897 18.5688 60.3537 18.6155 60.6139 18.6645L60.836 18.7071C60.9097 18.7215 60.9832 18.7361 61.0563 18.7509L61.2749 18.7959C61.3475 18.8111 61.4198 18.8265 61.4919 18.8421C65.3819 19.6837 68.2251 21.0966 70.467 23.3297C72.7012 25.5564 74.1071 28.3848 74.9401 32.2732C74.9555 32.345 74.9707 32.4171 74.9857 32.4894L75.0301 32.7072L75.0518 32.8167L75.0944 33.037L75.1153 33.1478L75.1561 33.3709C75.1763 33.4828 75.196 33.5956 75.2153 33.709L75.2533 33.9371C75.2782 34.0898 75.3024 34.244 75.3259 34.3997L75.3606 34.6345C75.3776 34.7525 75.3943 34.8714 75.4106 34.9913L75.4425 35.2324L75.4734 35.4762L75.4885 35.5991L75.5179 35.8471L75.5462 36.0979C75.5601 36.2241 75.5736 36.3514 75.5868 36.4799L75.6126 36.7384C75.621 36.8252 75.6293 36.9124 75.6374 37.0002L75.6612 37.2654C75.669 37.3543 75.6766 37.4438 75.684 37.5339L75.7059 37.806L75.7165 37.9434L75.737 38.2209L75.7469 38.3611L75.766 38.6443L75.7752 38.7873L75.7929 39.0764L75.8014 39.2224L75.8178 39.5176L75.8334 39.8169L75.848 40.1205L75.8651 40.5061L75.8809 40.8987L75.8926 41.2179L75.9035 41.5419L75.9183 42.0368L75.9272 42.3728L75.9353 42.7139L75.9461 43.2351L75.9523 43.5891L75.9578 43.9485L75.9625 44.3133L75.9683 44.8708L75.9713 45.2496L75.9746 45.8286L75.9759 46.222L75.9765 46.6213V47.0252L75.9759 47.4245L75.9746 47.8178L75.9726 48.2052L75.97 48.5867L75.9667 48.9625L75.9626 49.3327L75.9579 49.6973L75.9524 50.0565L75.9463 50.4104L75.9393 50.7589L75.9316 51.1023L75.9209 51.5245L75.9065 52.0208L75.8903 52.5064L75.8722 52.9814L75.8557 53.3694L75.8416 53.6749L75.8266 53.976L75.8107 54.2729L75.794 54.5657L75.7763 54.8544L75.7672 54.9973L75.7482 55.2802L75.7283 55.5592L75.718 55.6974L75.6967 55.9709L75.6687 56.3078L75.6392 56.6393L75.627 56.7705L75.6018 57.0303L75.5757 57.2869C75.5623 57.4145 75.5486 57.5408 75.5345 57.6661L75.5058 57.9152C75.4815 58.1215 75.4561 58.3249 75.4295 58.5255L75.3972 58.765L75.3637 59.0019L75.3466 59.1195L75.3116 59.3528C75.2285 59.8944 75.1364 60.4173 75.0347 60.9268L74.9905 61.1444C74.9838 61.1769 74.977 61.2093 74.9702 61.2417C74.9619 61.2813 74.9535 61.3209 74.9451 61.3604C74.115 65.2473 72.7129 68.0753 70.4827 70.3041C68.2528 72.5327 65.4215 73.9338 61.5289 74.7632L61.421 74.786L61.204 74.8307L61.0949 74.8526L60.8755 74.8955C60.4716 74.9732 60.059 75.045 59.6351 75.1112L59.4027 75.1467C59.3248 75.1584 59.2466 75.1699 59.168 75.1812L58.9308 75.2146C58.7321 75.242 58.5308 75.2682 58.3266 75.2934L58.0801 75.3231C57.9149 75.3425 57.7477 75.3613 57.5785 75.3793L57.3232 75.406C57.2376 75.4147 57.1514 75.4232 57.0647 75.4316L56.737 75.4622L56.4041 75.4914C56.3146 75.4989 56.2245 75.5063 56.1338 75.5136L55.86 75.5348L55.7217 75.5451L55.4423 75.565L55.3012 75.5746L55.0161 75.5931L54.872 75.602L54.5809 75.6192L54.2857 75.6354L53.9863 75.6508L53.6827 75.6654L53.5292 75.6723L53.2189 75.6856L52.9041 75.698L52.5847 75.7096L52.2605 75.7204L51.9316 75.7304L51.429 75.7439L51.0876 75.752L50.5659 75.7626L50.2115 75.7688L49.8518 75.7742L49.4865 75.779L49.1157 75.783L48.7393 75.7863L48.3571 75.7889L47.969 75.7909L47.575 75.7922L47.175 75.7928H46.7704L46.3703 75.7922L45.9763 75.7909L45.5883 75.7889L45.2061 75.7863L44.8296 75.783L44.4588 75.779L44.0936 75.7742L43.7338 75.7688L43.3794 75.7626L42.8577 75.752L42.3475 75.7396L42.0137 75.7304L41.6847 75.7204L41.3606 75.7096L41.0412 75.698L40.7264 75.6856L40.5707 75.679L40.2626 75.6654L39.9589 75.6508L39.6595 75.6354L39.3643 75.6192L39.2183 75.6107L38.9292 75.5931L38.7861 75.584L38.5029 75.565L38.3628 75.5552L38.0165 75.5296L37.6759 75.5026C37.5858 75.4952 37.4963 75.4876 37.4073 75.4799L37.1423 75.4562L36.8805 75.4316C36.7938 75.4232 36.7077 75.4147 36.622 75.406L36.3667 75.3793C36.0706 75.3477 35.7808 75.314 35.4965 75.2782L35.2541 75.2469C34.6516 75.1675 34.0738 75.0781 33.5139 74.978L33.2909 74.9373L33.0698 74.8956C32.9596 74.8744 32.8501 74.8527 32.7412 74.8307L32.5242 74.786L32.4163 74.7632C28.5238 73.9339 25.6926 72.5327 23.4626 70.3041C21.2317 68.0756 19.8298 65.2483 18.9999 61.3614L18.9773 61.2547L18.9329 61.0401L18.8898 60.8239C18.8401 60.5708 18.7927 60.3144 18.7477 60.0539L18.7096 59.8296L18.6726 59.6033C18.6605 59.5275 18.6485 59.4513 18.6367 59.3748L18.6019 59.144C18.5848 59.0281 18.5681 58.9113 18.5517 58.7935L18.5196 58.5568C18.4985 58.3981 18.4781 58.2377 18.4584 58.0755L18.4293 57.8308C18.415 57.7077 18.4011 57.5836 18.3876 57.4584L18.361 57.2064L18.3355 56.9513L18.3108 56.6931L18.2989 56.5628L18.2757 56.2997L18.2645 56.1669L18.2427 55.8987L18.2219 55.6269L18.2118 55.4897L18.1923 55.2125L18.1737 54.9316L18.1518 54.5749L18.1312 54.2121L18.1156 53.9173L18.101 53.6184L18.0871 53.3151L18.0741 53.0076L18.059 52.6169L18.0452 52.219L18.04 52.0579L18.0301 51.732L18.0211 51.4013L18.0128 51.0657L18.0053 50.7252L17.9985 50.3795L17.9925 50.0287L17.9871 49.6727L17.9825 49.3113L17.9785 48.9444L17.9739 48.3837L17.9717 48.0028L17.9701 47.6162L17.9689 47.0253V46.6213L17.9695 46.2219L17.9708 45.8286L17.9728 45.4411L17.9754 45.0595L17.9787 44.6837L17.9827 44.3135L17.9901 43.7685L17.9959 43.412L18.0025 43.0608L18.0137 42.5437L18.0222 42.2054L18.0338 41.7894L18.0467 41.3811L18.0579 41.0598L18.0699 40.7431L18.0828 40.4311L18.0965 40.1234L18.1111 39.8202L18.1187 39.6701L18.1345 39.3733L18.1512 39.0805L18.1689 38.7918L18.178 38.6489L18.197 38.3661L18.2068 38.2261L18.2272 37.949L18.2377 37.8118L18.2595 37.5401C18.2669 37.4501 18.2745 37.3608 18.2822 37.2719L18.3059 37.0072L18.3181 36.8761L18.3432 36.6163L18.3694 36.3598C18.3783 36.2748 18.3873 36.1903 18.3965 36.1063L18.4247 35.8558C18.439 35.7313 18.4538 35.6079 18.4689 35.4855L18.4996 35.2422C18.5413 34.9195 18.5859 34.6039 18.6333 34.2945L18.6695 34.0636C18.6939 33.9103 18.7191 33.7586 18.7451 33.6082L18.7846 33.3836C18.818 33.1972 18.8526 33.0129 18.8884 32.8303L18.932 32.612L18.9542 32.5034L18.9995 32.2875C19.8291 28.4021 21.2303 25.5759 23.4594 23.3487C25.6999 21.1102 28.5446 19.6928 32.4378 18.8478C32.8665 18.7547 33.3042 18.6688 33.7541 18.5896L33.98 18.5506C34.0935 18.5313 34.2078 18.5125 34.3229 18.4941L34.5542 18.4578C34.7092 18.434 34.8657 18.4109 35.0239 18.3885L35.2623 18.3554C35.4621 18.3283 35.6646 18.3023 35.8699 18.2774L36.1177 18.248L36.2426 18.2336L36.4947 18.2057L36.6218 18.1922L36.8783 18.1658L37.2034 18.1342L37.5334 18.1041C37.622 18.0963 37.7113 18.0886 37.8011 18.0811L38.0722 18.0591L38.3467 18.038L38.4853 18.0278L38.7652 18.0081L38.9065 17.9986L39.1919 17.9802L39.4811 17.9628L39.7742 17.9462L40.0713 17.9306L40.2213 17.9231L40.5244 17.9087L40.8317 17.8951L41.1433 17.8825L41.4592 17.8706L41.7795 17.8595L42.1861 17.8469L42.6 17.8355L42.9364 17.8272L43.2776 17.8197L43.6236 17.813L43.9746 17.807L44.5106 17.7995L44.8743 17.7953L45.2433 17.7919L45.8067 17.7881L46.3824 17.7858L46.7732 17.7852Z" fill="currentColor" fmp-c="4"></path></svg>