<svg width="1.7em" height="1.7em" viewBox="0 0 100 101" fill="currentColor" xmlns="http://www.w3.org/2000/svg" role="img" aria-label="user" fmp-c="4"><path fill-rule="evenodd" clip-rule="evenodd" d="M50.1559 11.5352L50.4798 11.5362L50.7951 11.5385L51.0006 11.5408L51.2026 11.5437L51.401 11.5472L51.5961 11.5514L51.8826 11.5589L52.162 11.568L52.4347 11.5787L52.613 11.5868L52.7885 11.5956L53.047 11.6104L53.2162 11.6212L53.383 11.6328L53.5476 11.6453L53.7101 11.6587L53.8705 11.6729L53.95 11.6804L54.1075 11.696L54.1856 11.7041L54.3405 11.7211L54.4938 11.739C54.5446 11.7452 54.5952 11.7515 54.6456 11.7579L54.7959 11.7778L54.8705 11.7881L55.0189 11.8095L55.1662 11.8319L55.3123 11.8554C55.3609 11.8634 55.4093 11.8715 55.4575 11.8799L55.6019 11.9055L55.7455 11.9322L55.8884 11.96C55.936 11.9695 55.9835 11.9791 56.0309 11.9889L56.1728 12.019C58.4156 12.5043 60.2854 13.4251 61.8169 14.9262L61.878 14.9866C63.4073 16.5107 64.3442 18.3754 64.8382 20.6173L64.8575 20.706L64.8857 20.84L64.9128 20.9743L64.926 21.0416L64.9516 21.1766L64.9762 21.3122L64.9998 21.4484L65.0225 21.5854C65.0299 21.6312 65.0372 21.6771 65.0442 21.7232L65.065 21.862L65.0751 21.9318L65.0945 22.0722L65.1039 22.1428L65.122 22.285L65.1392 22.4285L65.1556 22.5734L65.1711 22.7198L65.1858 22.8679L65.1997 23.0177L65.2128 23.1692L65.2252 23.3227L65.2367 23.4781L65.2475 23.6357L65.2576 23.7954L65.267 23.9574L65.2757 24.1217L65.2874 24.3729L65.2944 24.5436L65.3007 24.717L65.3064 24.8932L65.3115 25.0723L65.318 25.3466L65.3232 25.6279L65.326 25.8196L65.3282 26.0146L65.3306 26.3136L65.3321 26.6207V26.8301L65.3316 27.1427L65.33 27.4469L65.3272 27.7431L65.3247 27.9363L65.3217 28.1261L65.3161 28.4048L65.3116 28.5867L65.3066 28.7656L65.3009 28.9416L65.2946 29.1148L65.2877 29.2853L65.2801 29.4532L65.2718 29.6185L65.2628 29.7815L65.2532 29.9421L65.2428 30.1005L65.2316 30.2567L65.2198 30.4109L65.2038 30.6009L65.1867 30.7881L65.172 30.9359L65.1485 31.1546L65.1318 31.2986L65.1143 31.4412L65.0958 31.5825L65.0765 31.7226L65.0563 31.8617L65.0458 31.9308L65.013 32.1369L64.99 32.2733L64.9659 32.409L64.9409 32.544L64.9083 32.7121L64.8741 32.8796L64.8599 32.9465C64.373 35.2263 63.4346 37.119 61.8896 38.6631C60.3446 40.2071 58.4507 41.1444 56.1693 41.6305L56.0372 41.6581L55.9048 41.6847C55.8606 41.6934 55.8163 41.7019 55.772 41.7103L55.6386 41.735L55.5718 41.747L55.4375 41.7702L55.3026 41.7925L55.2348 41.8033L55.0301 41.8343L54.8924 41.8539L54.7537 41.8726L54.6137 41.8905L54.4725 41.9075L54.3299 41.9237L54.1858 41.939L54.0402 41.9536L53.8186 41.974L53.593 41.9926L53.3631 42.0096L53.2073 42.02L53.0493 42.0297L52.8891 42.0388L52.7265 42.0471L52.5615 42.0548L52.3939 42.0619L52.1377 42.0712L51.9634 42.0767L51.7863 42.0816L51.6063 42.086L51.4232 42.0897L51.237 42.0929L50.9516 42.0968L50.6587 42.0994L50.3579 42.101L50.0489 42.1015L49.7399 42.101L49.5385 42.1001L49.243 42.0978L49.0502 42.0956L48.8608 42.0929L48.6746 42.0897L48.4011 42.0839L48.2225 42.0793L48.0469 42.0741L47.874 42.0683L47.7039 42.0619L47.4535 42.051L47.2897 42.043L47.1283 42.0343L46.9692 42.025L46.7347 42.0096L46.5047 41.9926L46.2792 41.974L46.131 41.9606L46.0576 41.9536L45.912 41.939L45.7679 41.9237L45.6253 41.9075L45.4841 41.8905L45.3441 41.8726L45.2053 41.8539L45.0676 41.8343L44.863 41.8033L44.7276 41.7815L44.6602 41.7702L44.526 41.747L44.3924 41.7228L44.31 41.7073L44.2593 41.6976L44.1267 41.6715C44.0605 41.6582 43.9944 41.6445 43.9284 41.6305C41.647 41.1444 39.7532 40.2071 38.2087 38.6636C36.6632 37.1198 35.7246 35.2268 35.2377 32.9466L35.2236 32.8798L35.1961 32.7458L35.1827 32.6787L35.1567 32.5442L35.1317 32.4091L35.1196 32.3414L35.0961 32.2054L35.0735 32.0686L35.0519 31.931L35.0312 31.7925L35.0114 31.6529L34.9925 31.5122L34.9702 31.3346L34.9492 31.1549L34.9333 31.0095L34.9183 30.8625L34.9041 30.7139L34.8906 30.5635L34.878 30.4112L34.8661 30.257L34.855 30.1008L34.8397 29.8624L34.8304 29.7006L34.8218 29.5365L34.8138 29.3699L34.8066 29.2007L34.7999 29.0289L34.794 28.8543L34.7886 28.6768L34.7839 28.4964L34.7797 28.3129L34.7761 28.1263L34.7731 27.9365L34.7706 27.7433L34.7686 27.5467L34.7666 27.2451L34.7658 26.9353V26.6194L34.7667 26.411L34.7687 26.1056L34.7719 25.8083L34.7747 25.6145L34.7801 25.33L34.7843 25.1444L34.7892 24.9619L34.7977 24.6938L34.8077 24.4322L34.8152 24.2612L34.8233 24.0928L34.8322 23.9269L34.8418 23.7635L34.8521 23.6024L34.8661 23.4041L34.8812 23.2091L34.9011 22.9792L34.9153 22.8282L34.9227 22.7534L34.9382 22.6049L34.9546 22.4581L34.9631 22.3852L34.9807 22.2405L34.9993 22.0971L35.0187 21.955L35.0391 21.814L35.0497 21.7439L35.0771 21.5696L35.106 21.3967L35.118 21.3279L35.1428 21.1907L35.1686 21.0541L35.1819 20.986L35.2092 20.8501C35.2185 20.8048 35.2279 20.7596 35.2376 20.7145C35.7243 18.435 36.6625 16.5426 38.2075 14.9988C39.7499 13.4578 41.641 12.5156 43.9161 12.0218L43.9852 12.0069L44.1237 11.978C44.1931 11.9639 44.2626 11.9501 44.3324 11.9367L44.4723 11.9105L44.6128 11.8854C44.6598 11.8772 44.7069 11.8691 44.7542 11.8612L44.8965 11.8381L45.0397 11.816C45.0876 11.8088 45.1357 11.8017 45.1841 11.7948L45.3296 11.7747L45.4028 11.7649L45.5502 11.7462L45.6245 11.7371L45.7741 11.7197L45.9253 11.7033L46.0781 11.6877L46.1551 11.6802L46.3106 11.6659L46.468 11.6524L46.6273 11.6398L46.7887 11.6279L46.9523 11.6169L47.202 11.6018L47.3714 11.5927L47.5433 11.5843L47.7178 11.5766L47.895 11.5697L48.075 11.5634L48.2579 11.5578L48.4437 11.5529L48.6327 11.5486L48.922 11.5433L49.119 11.5405L49.3194 11.5383L49.5233 11.5367L49.7308 11.5357L49.9419 11.5352H50.1559ZM49.3365 48.2549L50.0001 48.2539L50.5538 48.2546L51.0982 48.2566L51.5271 48.2592L52.0552 48.2636L52.5745 48.2696C52.7118 48.2714 52.8483 48.2733 52.9838 48.2754L53.5876 48.2859L53.9835 48.2941L54.1796 48.2986L54.5679 48.3084L54.9513 48.3191L55.3298 48.331L55.7035 48.3438C55.8892 48.3505 56.0731 48.3577 56.2553 48.3652L56.6176 48.3808L56.7971 48.389L57.1528 48.4064C57.5653 48.4272 57.9691 48.4505 58.365 48.4762L58.7025 48.4988C59.7091 48.5685 60.6647 48.6549 61.5821 48.7601L61.8865 48.7958C63.6539 49.0084 65.2819 49.2928 66.8635 49.6647C72.5287 50.997 77.0782 53.4544 80.7425 57.4216C84.0268 60.9796 86.1621 65.2954 87.4242 70.5527C87.644 71.4684 87.8376 72.4075 88.0072 73.3806L88.0551 73.6596L88.1016 73.9405C88.1704 74.3634 88.235 74.7928 88.2954 75.2298L88.3351 75.5222L88.3735 75.817C88.3861 75.9156 88.3986 76.0146 88.4108 76.114L88.4469 76.4135C88.4587 76.5137 88.4703 76.6143 88.4818 76.7154L88.5155 77.0198L88.532 77.173L88.564 77.4812L88.5949 77.7921L88.6109 77.9592L88.6246 78.1058L88.6533 78.4221L88.6809 78.7413L88.6943 78.902L88.7202 79.2255C88.7287 79.3338 88.737 79.4427 88.7451 79.552L88.769 79.8815L88.7918 80.214L88.8136 80.5497L88.8343 80.8886C88.8411 81.0021 88.8477 81.1161 88.8541 81.2307L88.8729 81.5761L88.8906 81.9248L88.9075 82.277C88.9129 82.3949 88.9182 82.5135 88.9233 82.6326L88.9383 82.9917L88.9454 83.1726L88.9589 83.5371L88.9716 83.9053L88.9833 84.2772L88.9888 84.4645L88.9993 84.8421L89.0088 85.2235L89.0175 85.6088L89.0253 85.9981L89.0328 86.3914C89.0611 88.1171 87.6856 89.5394 85.9599 89.5682C84.2343 89.597 82.812 88.2214 82.7832 86.4958L82.7766 86.1274L82.7693 85.7631L82.7569 85.2241L82.7428 84.6938L82.7268 84.1721L82.7152 83.8289L82.7028 83.4895L82.6895 83.1536L82.6754 82.8214L82.6604 82.4927L82.6446 82.1675L82.6364 82.0061L82.6104 81.5273L82.592 81.2122L82.5727 80.9004L82.5627 80.7457L82.542 80.4388L82.5314 80.2865L82.5093 79.9842L82.4979 79.8343L82.4745 79.5366L82.4501 79.242C82.4461 79.1945 82.442 79.147 82.4379 79.0997C82.4336 79.0498 82.4292 79 82.4248 78.9504L82.3918 78.5899L82.3572 78.2338L82.3285 77.9521L82.3138 77.8123L82.2835 77.5347L82.268 77.3969L82.2363 77.1232C82.2255 77.0325 82.2146 76.9421 82.2035 76.8522L82.1697 76.5837L82.1524 76.4503L82.1171 76.1855L82.0807 75.9231L82.0432 75.6631C81.9925 75.3179 81.9389 74.9789 81.8824 74.6455L81.8395 74.3965C81.6944 73.57 81.5308 72.7778 81.3468 72.0117C80.3205 67.7365 78.6598 64.3798 76.1506 61.6616C73.3861 58.6685 69.9452 56.8099 65.4327 55.7487C65.354 55.7302 65.2751 55.712 65.196 55.6939L64.9578 55.6406C64.8384 55.6143 64.7183 55.5885 64.5977 55.5633L64.3555 55.5135C63.9099 55.4234 63.4553 55.3404 62.9893 55.264L62.7339 55.223C61.9642 55.102 61.1624 54.9985 60.3172 54.9109L60.0338 54.8823C59.9388 54.873 59.8433 54.8638 59.7472 54.8549L59.4571 54.8286L59.3108 54.8159L59.0154 54.7913L58.7164 54.7678C58.6162 54.7602 58.5153 54.7527 58.4137 54.7455L58.1072 54.7242C58.0044 54.7173 57.9009 54.7105 57.7968 54.704L57.4823 54.6848L57.3236 54.6757L57.003 54.6581L56.8411 54.6497L56.514 54.6337L56.1827 54.6186L56.0153 54.6115L55.5919 54.5947L55.1613 54.5795L54.8115 54.5683L54.3674 54.5557L53.9155 54.5446L53.7326 54.5405L53.3628 54.533L52.9879 54.5265L52.6076 54.5207L52.2219 54.5159L51.8307 54.5119L51.2335 54.5074L50.8282 54.5055L50.4171 54.5043L50.0001 54.5039L49.583 54.5043L49.3767 54.5048L48.9684 54.5064L48.4661 54.5095L47.9726 54.5139L47.3918 54.5209L47.0113 54.5266L46.5431 54.535L46.083 54.5449L45.9012 54.5492L45.4521 54.561L45.0107 54.5743L44.6629 54.586C44.5478 54.59 44.4335 54.5942 44.3199 54.5986L43.9814 54.6122L43.8138 54.6194L43.4821 54.6345L43.1547 54.6507C42.9921 54.659 42.8311 54.6677 42.6716 54.6768L42.3547 54.6955L42.1978 54.7053L41.8869 54.7256C41.5266 54.75 41.1742 54.7765 40.8291 54.8054L40.5351 54.8307C38.9277 54.9729 37.4786 55.167 36.119 55.4232L35.8727 55.4705L35.6284 55.5191C35.2632 55.5932 34.904 55.6719 34.5495 55.7555C30.0328 56.8211 26.5898 58.6858 23.8265 61.6867C21.3241 64.4044 19.6689 67.7578 18.6465 72.028C18.6099 72.181 18.574 72.335 18.539 72.4901L18.4871 72.7237C18.4699 72.8018 18.453 72.8802 18.4363 72.9589L18.3867 73.1959C18.354 73.3545 18.3221 73.5143 18.291 73.6754L18.2448 73.9179C18.1841 74.2426 18.1264 74.5726 18.0716 74.9082L18.031 75.1611C17.9843 75.4574 17.9399 75.7581 17.8976 76.0638L17.8619 76.3269C17.8443 76.4591 17.8271 76.5922 17.8102 76.7263L17.7771 76.9956L17.745 77.2675C17.7239 77.4496 17.7036 77.6335 17.6838 77.8192L17.6547 78.0991L17.6266 78.3817L17.6129 78.5241L17.5863 78.8109L17.5606 79.1007L17.5298 79.467L17.5005 79.838L17.4782 80.1382L17.4567 80.4416L17.4361 80.7481L17.4165 81.0578L17.3977 81.3708L17.3886 81.5285L17.3712 81.8465L17.3546 82.1678L17.3466 82.3298L17.3314 82.6563L17.3169 82.9863L17.3033 83.3199L17.2905 83.6571L17.2785 83.998L17.2621 84.5163L17.2521 84.8665L17.2429 85.2206L17.2345 85.5785L17.2269 85.9404L17.22 86.3063L17.2168 86.4908C17.1881 88.2164 15.766 89.5921 14.0403 89.5635C12.3147 89.5348 10.939 88.1126 10.9672 86.387L10.9784 85.7992L10.9888 85.3163L11.0006 84.8395L11.0109 84.4624L11.0221 84.0891L11.0342 83.7196L11.0473 83.3538L11.0612 82.9916L11.076 82.6329L11.0918 82.2778L11.1086 81.9262L11.1263 81.578L11.1355 81.4051L11.1546 81.0619L11.1646 80.8915L11.1853 80.5531L11.196 80.3852L11.2181 80.0516L11.2413 79.7211L11.2656 79.3936C11.2738 79.285 11.2823 79.1768 11.2909 79.0691L11.3172 78.7476C11.3262 78.6409 11.3354 78.5347 11.3447 78.4289L11.3732 78.113L11.4104 77.7221L11.4494 77.3353L11.4655 77.1818L11.4985 76.8766L11.5154 76.725L11.5501 76.4236L11.5679 76.2738L11.6044 75.9761L11.6421 75.6807C11.8016 74.4548 11.9923 73.2889 12.2182 72.1647L12.2731 71.8957C12.3657 71.4487 12.464 71.008 12.5683 70.5727C13.8255 65.3216 15.9537 61.01 19.2287 57.4531C22.891 53.4761 27.4436 51.0104 33.1143 49.6725C34.8397 49.2655 36.6212 48.9626 38.578 48.7436L38.8729 48.7114C39.0703 48.6903 39.2696 48.6701 39.4708 48.6507L39.7741 48.6221L40.0803 48.5948L40.2346 48.5816L40.5455 48.556L40.8596 48.5316L41.1771 48.5084C41.3898 48.4932 41.6048 48.4788 41.8221 48.4652L42.15 48.4453L42.3153 48.4357L42.6652 48.4166L42.8417 48.4074L43.1978 48.39C43.377 48.3816 43.5578 48.3736 43.7402 48.366L44.1074 48.3514L44.5729 48.3346L45.0458 48.3196C45.1729 48.3158 45.3008 48.3122 45.4295 48.3088L45.8182 48.2989L46.0144 48.2944L46.4107 48.2861L47.0149 48.2755L47.4245 48.2697L47.8395 48.2648L48.26 48.2608L48.6863 48.2578L49.3365 48.2549ZM49.9203 17.7852H50.0489L50.3034 17.7856L50.5509 17.7871L50.6726 17.7882L50.9708 17.7921L51.2606 17.7975C51.3367 17.7992 51.412 17.8011 51.4864 17.8031L51.707 17.8097C51.816 17.8133 51.9231 17.8173 52.0283 17.8217L52.2363 17.8311L52.3384 17.8362L52.5389 17.8473L52.7347 17.8596L52.8088 17.8646L52.9549 17.8753L53.0983 17.8866L53.239 17.8986L53.377 17.9114L53.445 17.9181L53.5791 17.932L53.6452 17.9392L53.7754 17.9543L53.9031 17.9701L53.966 17.9783L54.09 17.9952L54.2116 18.013L54.3308 18.0316L54.3896 18.0411L54.5053 18.0609L54.6187 18.0815C54.9929 18.1516 55.3296 18.2354 55.6351 18.3345L55.7258 18.3647C56.2197 18.5333 56.6302 18.7439 56.9858 19.003L57.0498 19.0506C57.1344 19.1149 57.2159 19.182 57.2946 19.252L57.3531 19.3052C57.3918 19.3409 57.4299 19.3775 57.4673 19.4147L57.503 19.4508C57.5304 19.4787 57.5574 19.5071 57.584 19.5358L57.6365 19.5936C57.6539 19.6131 57.671 19.6327 57.688 19.6525L57.7384 19.7124C57.7716 19.7528 57.8041 19.7938 57.8358 19.8356L57.8829 19.8989C57.9683 20.016 58.0483 20.1393 58.1232 20.2696L58.1636 20.3414C58.3362 20.6558 58.4804 21.0112 58.5995 21.4221L58.6265 21.5179L58.6397 21.5665L58.6654 21.6653C58.7118 21.8484 58.7538 22.0419 58.7916 22.2468L58.8118 22.3598L58.8312 22.4751L58.8407 22.5336L58.8589 22.6524C58.8648 22.6924 58.8706 22.7328 58.8763 22.7737L58.893 22.8974L58.901 22.9602L58.9165 23.0876L58.9312 23.2176L58.9452 23.3503L58.9585 23.4855L58.971 23.6234L58.9828 23.7641L58.9939 23.9075L59.0043 24.0536L59.014 24.2026L59.0257 24.4031L59.0362 24.6086L59.0456 24.8192C59.0515 24.9614 59.0566 25.1071 59.0611 25.2563L59.0671 25.483L59.0721 25.7151L59.0743 25.8332L59.0777 26.0738L59.0802 26.3201L59.0816 26.5722L59.0821 26.8302L59.0816 27.0881L59.0797 27.4022L59.0761 27.7073L59.0743 27.8268L59.0685 28.1195L59.0611 28.4035C59.0589 28.4781 59.0566 28.5518 59.054 28.6246L59.0458 28.8404L59.0364 29.051L59.0259 29.2564C59.023 29.3098 59.02 29.3627 59.0168 29.4151L59.007 29.5706L58.9964 29.7231L58.9908 29.7983L58.979 29.9462L58.9665 30.0913L58.9533 30.2334L58.9392 30.3726L58.9243 30.509L58.9166 30.5762L58.9005 30.7084L58.8921 30.7735L58.8748 30.9017C58.8659 30.9652 58.8567 31.0276 58.8472 31.0891L58.8277 31.2107C58.6222 32.4546 58.2778 33.2918 57.7445 33.9416L57.6924 34.004C57.6396 34.0657 57.585 34.1257 57.5286 34.1843L57.4716 34.2424L57.4436 34.27L57.3871 34.3245L57.3296 34.3779C57.3103 34.3954 57.2908 34.4128 57.2711 34.4301L57.2116 34.4812C57.1415 34.5401 57.0693 34.5968 56.9946 34.6514L56.93 34.6976L56.8641 34.7427C56.5094 34.9806 56.0999 35.1734 55.6083 35.3274L55.5151 35.3559L55.4678 35.3697L55.3717 35.3968C55.3231 35.4101 55.2738 35.4231 55.2237 35.4358L55.1225 35.4607L55.0711 35.4728L54.9666 35.4963C54.8611 35.5195 54.7523 35.5414 54.6401 35.562L54.5267 35.5823L54.4109 35.6017L54.3521 35.6111L54.2328 35.6293L54.111 35.6467L54.0492 35.6551L53.9237 35.6714L53.7956 35.6869L53.665 35.7016L53.5987 35.7087L53.4641 35.7223L53.3958 35.7288L53.2572 35.7413L53.1158 35.7531L52.9717 35.7641L52.7784 35.7775C52.648 35.7861 52.5142 35.7939 52.3771 35.8008L52.1688 35.8108L51.9552 35.8195L51.7364 35.8272L51.5122 35.8338L51.2825 35.8393L51.0473 35.8438L50.9276 35.8456L50.622 35.8491L50.3073 35.8511L50.0489 35.8516L49.7905 35.8511L49.538 35.8496L49.414 35.8486L49.1102 35.8447L48.8152 35.8393L48.5855 35.8338L48.3613 35.8272L48.1425 35.8195L47.929 35.8108L47.7207 35.8008L47.6388 35.7966L47.4775 35.7874L47.3193 35.7775L47.1644 35.7669L47.0125 35.7555L46.8637 35.7433L46.7179 35.7303L46.5751 35.7165L46.4353 35.7019C46.3891 35.6969 46.3435 35.6917 46.2983 35.6864L46.1641 35.6701C45.7438 35.6173 45.3654 35.5516 45.0225 35.4718L44.9154 35.4461L44.8105 35.4195C43.8429 35.1663 43.1708 34.7867 42.6262 34.2424C42.6072 34.2234 42.5884 34.2043 42.5699 34.185L42.5148 34.1268L42.4876 34.0973L42.4343 34.0374L42.4081 34.0071L42.3565 33.9457C42.3139 33.894 42.2726 33.8412 42.2325 33.787L42.1848 33.7214C41.9966 33.4565 41.8351 33.1606 41.6977 32.8216L41.6638 32.736C41.5526 32.4475 41.4579 32.1282 41.378 31.7713L41.3545 31.6631L41.3431 31.6081L41.3209 31.4964C41.2811 31.2894 41.2456 31.0705 41.2142 30.8384L41.1975 30.7106L41.1816 30.58L41.1665 30.4468L41.1592 30.3792L41.1453 30.2418L41.1386 30.1721L41.1258 30.0306L41.1197 29.9587L41.1081 29.8129L41.1025 29.7388L41.092 29.5886L41.0822 29.4353L41.0775 29.3576L41.0665 29.1547L41.0614 29.0513L41.052 28.8408L41.0438 28.6249C41.0412 28.5521 41.0388 28.4784 41.0366 28.4038L41.0292 28.1197L41.0235 27.827L41.0216 27.7075L41.0181 27.4024L41.0162 27.0882L41.0157 26.8302L41.0162 26.5722L41.0181 26.2581L41.0216 25.953L41.0235 25.8335L41.0292 25.5409L41.0366 25.2568C41.0388 25.1822 41.0412 25.1085 41.0438 25.0357L41.052 24.82L41.0565 24.714L41.0664 24.5061C41.0699 24.4376 41.0736 24.37 41.0775 24.3033L41.0897 24.1054L41.0947 24.0316L41.1051 23.8859L41.1106 23.8142L41.1221 23.6727L41.1343 23.534L41.1407 23.4656L41.154 23.3309L41.1681 23.1988L41.1829 23.0693L41.1905 23.0055L41.2065 22.8798L41.2232 22.7566L41.2406 22.6359L41.2589 22.5175L41.278 22.4016L41.2878 22.3445L41.3081 22.232C41.315 22.1949 41.322 22.1582 41.3292 22.1218L41.3511 22.0139C41.4032 21.7645 41.4621 21.5332 41.5284 21.3175L41.5573 21.226L41.5871 21.1364L41.6023 21.0923L41.6334 21.0054C41.6914 20.8478 41.7541 20.6992 41.8216 20.5585L41.859 20.4826C41.9032 20.3948 41.9494 20.3102 41.9976 20.2284L42.0395 20.159C42.1031 20.0559 42.1702 19.9574 42.2409 19.8629L42.2885 19.8004C42.3126 19.7694 42.3371 19.7389 42.362 19.7088L42.4124 19.6491C42.4803 19.5702 42.5511 19.494 42.625 19.4202C42.7584 19.287 42.8996 19.1633 43.0508 19.0488L43.1163 19.0003C43.4576 18.7525 43.8498 18.5491 44.3176 18.3845L44.4091 18.3531C44.4553 18.3376 44.5023 18.3225 44.55 18.3078L44.6463 18.2788L44.6953 18.2646L44.7947 18.237L44.8962 18.2103C44.9304 18.2016 44.965 18.193 44.9999 18.1845L45.1057 18.1597L45.1594 18.1476L45.2685 18.124C45.3053 18.1163 45.3424 18.1088 45.3799 18.1014L45.4936 18.0796C45.5702 18.0653 45.6484 18.0517 45.7281 18.0386L45.849 18.0193C45.8897 18.0131 45.9308 18.0069 45.9723 18.0009L46.0981 17.9834C46.1616 17.9748 46.2261 17.9665 46.2916 17.9585L46.4239 17.943L46.5587 17.9282L46.6963 17.9142L46.7661 17.9075L46.9078 17.8947L47.0522 17.8827L47.2424 17.8682C47.3708 17.859 47.5023 17.8507 47.6371 17.8431L47.8419 17.8323C48.0491 17.8221 48.2638 17.8136 48.4864 17.8068L48.7117 17.8006C48.8637 17.7968 49.0193 17.7937 49.1785 17.7913L49.4201 17.7883L49.6673 17.7863L49.9203 17.7852Z" fill="currentColor" fmp-c="4"></path></svg>